
<svg width="683" height="432" viewBox="0 0 683 432" fill="none" xmlns="http://www.w3.org/2000/svg">
<g style='fill: white;'>
<path d="M397.25 130V28C397.25 27 397.5 26.25 398 25.75C398.6 25.25 399.7 25 401.3 25H415.85C420.75 25 425.05 25.7 428.75 27.1C432.45 28.5 435.5 30.95 437.9 34.45C440.3 37.85 442.1 42.65 443.3 48.85C444.5 54.95 445.1 62.75 445.1 72.25C445.1 82.55 444.5 91.4 443.3 98.8C442.2 106.1 440.45 112.05 438.05 116.65C435.75 121.25 432.8 124.65 429.2 126.85C425.6 128.95 421.3 130 416.3 130H397.25ZM412.55 115.45H416.75C418.15 115.45 419.5 114.95 420.8 113.95C422.1 112.95 423.25 110.9 424.25 107.8C425.25 104.7 426.05 100.2 426.65 94.3C427.25 88.3 427.55 80.4 427.55 70.6C427.55 63.8 427.3 58.35 426.8 54.25C426.3 50.05 425.6 46.85 424.7 44.65C423.8 42.45 422.65 40.95 421.25 40.15C419.95 39.35 418.4 38.95 416.6 38.95H412.55V115.45ZM452.621 130V27.85C452.621 27.85 452.721 27.4 452.921 26.5C453.221 25.5 454.071 25 455.471 25H491.321C491.321 29.1 491.271 32.1 491.171 34C491.171 35.9 490.971 37.15 490.571 37.75C490.171 38.35 489.521 38.65 488.621 38.65H467.921V116.35H490.421C490.421 120.55 490.371 123.65 490.271 125.65C490.271 127.55 490.071 128.75 489.671 129.25C489.271 129.75 488.621 130 487.721 130H452.621ZM453.971 80.05V66.1H487.421C487.421 71.8 487.321 75.55 487.121 77.35C486.921 79.15 486.121 80.05 484.721 80.05H453.971ZM503.271 130.3C502.371 130.3 500.971 130.25 499.071 130.15C497.271 130.05 495.471 129.9 493.671 129.7L519.321 27.55C519.621 25.65 521.621 24.7 525.321 24.7C526.621 24.7 527.921 24.75 529.221 24.85C530.521 24.95 531.621 25.05 532.521 25.15L558.171 127.45C558.371 128.35 558.071 129.05 557.271 129.55C556.471 130.05 554.521 130.3 551.421 130.3C550.421 130.3 549.171 130.25 547.671 130.15C546.171 130.15 544.421 130.1 542.421 130L530.421 75.1C529.921 72.2 529.371 69.1 528.771 65.8C528.171 62.5 527.621 59.2 527.121 55.9C526.721 52.5 526.421 49.4 526.221 46.6C525.921 49.4 525.521 52.5 525.021 55.9C524.521 59.2 524.021 62.5 523.521 65.8C523.021 69.1 522.421 72.2 521.721 75.1L510.321 127.3C510.121 128.3 509.671 129.05 508.971 129.55C508.271 130.05 506.371 130.3 503.271 130.3ZM510.171 105.25V91.45H544.671V105.25H510.171ZM563.803 130V28C563.803 27 564.053 26.25 564.553 25.75C565.153 25.25 566.253 25 567.853 25H582.403C587.303 25 591.603 25.7 595.303 27.1C599.003 28.5 602.053 30.95 604.453 34.45C606.853 37.85 608.653 42.65 609.853 48.85C611.053 54.95 611.653 62.75 611.653 72.25C611.653 82.55 611.053 91.4 609.853 98.8C608.753 106.1 607.003 112.05 604.603 116.65C602.303 121.25 599.353 124.65 595.753 126.85C592.153 128.95 587.853 130 582.853 130H563.803ZM579.103 115.45H583.303C584.703 115.45 586.053 114.95 587.353 113.95C588.653 112.95 589.803 110.9 590.803 107.8C591.803 104.7 592.603 100.2 593.203 94.3C593.803 88.3 594.103 80.4 594.103 70.6C594.103 63.8 593.853 58.35 593.353 54.25C592.853 50.05 592.153 46.85 591.253 44.65C590.353 42.45 589.203 40.95 587.803 40.15C586.503 39.35 584.953 38.95 583.153 38.95H579.103V115.45ZM423.8 254.55L416.45 232.65C416.15 231.55 415.65 229.8 414.95 227.4C414.25 224.9 413.5 222.1 412.7 219C411.9 215.9 411.05 212.75 410.15 209.55C409.35 206.25 408.6 203.2 407.9 200.4C407.2 197.6 406.6 195.35 406.1 193.65C405.7 191.95 405.5 191.1 405.5 191.1L411.5 174L424.1 213.6C424.8 215.7 425.4 217.7 425.9 219.6C426.4 221.5 426.8 223.2 427.1 224.7C427.5 226.1 427.8 227.25 428 228.15C428.2 228.95 428.3 229.35 428.3 229.35C428.3 229.35 428.4 228.95 428.6 228.15C428.8 227.25 429.05 226.05 429.35 224.55C429.75 223.05 430.15 221.4 430.55 219.6C431.05 217.8 431.6 215.95 432.2 214.05L443.45 176.85L450.5 191.4C450.5 191.4 450.25 192.25 449.75 193.95C449.35 195.55 448.8 197.75 448.1 200.55C447.4 203.25 446.6 206.25 445.7 209.55C444.9 212.75 444.05 215.9 443.15 219C442.25 222.1 441.45 224.85 440.75 227.25C440.15 229.65 439.65 231.45 439.25 232.65L431.75 253.5C431.55 254.2 431 254.55 430.1 254.55H423.8ZM397.1 279V176.85C397.1 175.45 397.4 174.65 398 174.45C398.6 174.15 399.25 174 399.95 174H411.5L412.25 199.5L408.05 203.25C408.05 203.25 408.15 203.85 408.35 205.05C408.55 206.15 408.75 207.75 408.95 209.85C409.25 211.95 409.55 214.45 409.85 217.35C410.15 220.15 410.45 223.2 410.75 226.5C411.05 229.7 411.3 233.1 411.5 236.7C411.8 240.3 411.95 243.95 411.95 247.65L412.25 276.15C412.25 277.15 412 277.85 411.5 278.25C411 278.55 409.65 278.75 407.45 278.85C405.35 278.95 401.9 279 397.1 279ZM443.3 279L443.9 247.95C444 244.25 444.15 240.65 444.35 237.15C444.65 233.55 444.95 230.1 445.25 226.8C445.55 223.4 445.8 220.25 446 217.35C446.3 214.45 446.55 211.95 446.75 209.85C447.05 207.75 447.3 206.1 447.5 204.9C447.7 203.6 447.8 202.95 447.8 202.95L443.45 199.65V176.85C443.75 175.85 444.05 175.15 444.35 174.75C444.75 174.25 445.4 174 446.3 174C450.5 174 453.45 174 455.15 174C456.95 174 458 174 458.3 174C458.7 174 458.9 174 458.9 174V276.15C458.9 277.15 458.65 277.85 458.15 278.25C457.75 278.55 456.5 278.75 454.4 278.85C452.3 278.95 448.6 279 443.3 279ZM474.12 279.3C473.22 279.3 471.82 279.25 469.92 279.15C468.12 279.05 466.32 278.9 464.52 278.7L490.17 176.55C490.47 174.65 492.47 173.7 496.17 173.7C497.47 173.7 498.77 173.75 500.07 173.85C501.37 173.95 502.47 174.05 503.37 174.15L529.02 276.45C529.22 277.35 528.92 278.05 528.12 278.55C527.32 279.05 525.37 279.3 522.27 279.3C521.27 279.3 520.02 279.25 518.52 279.15C517.02 279.15 515.27 279.1 513.27 279L501.27 224.1C500.77 221.2 500.22 218.1 499.62 214.8C499.02 211.5 498.47 208.2 497.97 204.9C497.57 201.5 497.27 198.4 497.07 195.6C496.77 198.4 496.37 201.5 495.87 204.9C495.37 208.2 494.87 211.5 494.37 214.8C493.87 218.1 493.27 221.2 492.57 224.1L481.17 276.3C480.97 277.3 480.52 278.05 479.82 278.55C479.12 279.05 477.22 279.3 474.12 279.3ZM481.02 254.25V240.45H515.52V254.25H481.02ZM574.852 279L558.502 238.5C557.702 236.3 556.802 233.7 555.802 230.7C554.802 227.6 553.802 224.3 552.802 220.8C551.902 217.3 551.002 213.9 550.102 210.6C549.302 207.2 548.552 204.1 547.852 201.3C547.152 198.5 546.552 196.25 546.052 194.55C545.652 192.85 545.452 192 545.452 192L536.602 183L537.352 174H549.352L565.402 213.75C566.302 216.05 567.252 218.8 568.252 222C569.252 225.2 570.252 228.55 571.252 232.05C572.252 235.45 573.152 238.8 573.952 242.1C574.852 245.3 575.602 248.25 576.202 250.95C576.902 253.65 577.452 255.8 577.852 257.4C578.252 259 578.452 259.8 578.452 259.8L587.752 270L586.552 279H574.852ZM534.502 279V176.85C534.502 174.95 535.452 174 537.352 174L549.802 176.85L547.552 199.65C547.852 201.55 548.052 203.65 548.152 205.95C548.352 208.15 548.552 210.55 548.752 213.15C548.952 215.65 549.102 218.15 549.202 220.65C549.402 223.15 549.502 225.6 549.502 228C549.602 230.4 549.652 232.65 549.652 234.75C549.752 236.75 549.802 238.5 549.802 240V276.15C549.802 277.15 549.552 277.85 549.052 278.25C548.652 278.55 547.402 278.75 545.302 278.85C543.202 278.95 539.602 279 534.502 279ZM586.552 279L574.102 276.15L576.202 250.2C575.902 248.1 575.652 245.95 575.452 243.75C575.252 241.55 575.102 239.3 575.002 237C574.902 234.6 574.752 232.3 574.552 230.1C574.452 227.8 574.352 225.55 574.252 223.35C574.252 221.15 574.202 219.1 574.102 217.2C574.102 215.3 574.102 213.55 574.102 211.95V176.85C574.102 175.85 574.302 175.2 574.702 174.9C575.202 174.5 576.502 174.25 578.602 174.15C580.802 174.05 584.402 174 589.402 174V276.15C589.402 278.05 588.452 279 586.552 279ZM605.088 193.35C603.688 193.35 602.488 193.1 601.488 192.6C600.488 192 599.738 190.85 599.238 189.15C600.438 187.25 601.238 185.65 601.638 184.35C602.138 183.05 602.488 181.85 602.688 180.75C602.888 179.55 603.088 178.3 603.288 177C601.788 176 600.738 174.8 600.138 173.4C599.538 172 599.238 170.35 599.238 168.45C599.238 165.95 600.088 163.8 601.788 162C603.488 160.2 605.638 159.3 608.238 159.3C611.438 159.3 613.888 160.2 615.588 162C617.288 163.8 618.138 166.35 618.138 169.65C618.138 172.65 617.588 175.6 616.488 178.5C615.488 181.3 614.238 183.8 612.738 186C611.238 188.2 609.788 190 608.388 191.4C606.988 192.7 605.888 193.35 605.088 193.35ZM645.066 280.5C638.366 280.5 633.416 279.5 630.216 277.5C627.016 275.5 625.416 273.25 625.416 270.75C625.416 269.25 625.666 267.5 626.166 265.5C626.766 263.4 627.666 261.5 628.866 259.8C630.466 261.2 632.516 262.4 635.016 263.4C637.616 264.3 640.416 264.75 643.416 264.75C647.916 264.75 651.066 263.6 652.866 261.3C654.666 259 655.566 255.9 655.566 252C655.566 249.2 655.016 246.55 653.916 244.05C652.916 241.55 651.016 238.5 648.216 234.9L634.116 216.9C630.716 212.4 628.416 208.5 627.216 205.2C626.016 201.8 625.416 198.4 625.416 195C625.416 188.3 627.616 182.9 632.016 178.8C636.516 174.6 643.116 172.5 651.816 172.5C659.216 172.5 664.416 173.25 667.416 174.75C670.416 176.25 671.916 178.2 671.916 180.6C671.916 181.9 671.616 183.3 671.016 184.8C670.516 186.3 669.616 187.8 668.316 189.3C667.416 188.6 665.666 187.9 663.066 187.2C660.566 186.4 657.766 186 654.666 186C650.766 186 647.666 186.75 645.366 188.25C643.066 189.65 641.916 191.75 641.916 194.55C641.916 197.05 642.416 199.3 643.416 201.3C644.416 203.3 645.916 205.65 647.916 208.35L662.916 226.8C666.616 231.4 669.066 235.6 670.266 239.4C671.566 243.1 672.216 247.15 672.216 251.55C672.216 256.55 671.416 261.25 669.816 265.65C668.216 270.05 665.466 273.65 661.566 276.45C657.666 279.15 652.166 280.5 645.066 280.5ZM397.1 428V326C397.1 325 397.4 324.25 398 323.75C398.6 323.25 399.7 323 401.3 323H416C419.2 323 422.25 323.35 425.15 324.05C428.15 324.65 430.85 325.8 433.25 327.5C435.75 329.2 437.7 331.55 439.1 334.55C440.6 337.55 441.35 341.5 441.35 346.4C441.35 351.7 440.6 356.05 439.1 359.45C437.7 362.85 435.9 365.5 433.7 367.4C431.6 369.2 429.5 370.25 427.4 370.55C429.1 370.65 430.95 371.05 432.95 371.75C434.95 372.35 436.85 373.45 438.65 375.05C440.45 376.55 441.9 378.7 443 381.5C444.2 384.3 444.8 387.9 444.8 392.3C444.8 396.6 444.4 400.6 443.6 404.3C442.9 407.9 441.75 411.2 440.15 414.2C438.65 417.1 436.75 419.6 434.45 421.7C432.25 423.7 429.65 425.25 426.65 426.35C423.75 427.45 420.4 428 416.6 428H397.1ZM412.7 414.65H416.9C418.4 414.65 419.7 414.2 420.8 413.3C421.9 412.4 422.9 411.1 423.8 409.4C424.7 407.6 425.35 405.4 425.75 402.8C426.25 400.2 426.5 397.15 426.5 393.65C426.5 390.05 426.3 387.25 425.9 385.25C425.5 383.15 424.9 381.55 424.1 380.45C423.3 379.35 422.3 378.65 421.1 378.35C420 377.95 418.7 377.75 417.2 377.75H412.7V414.65ZM412.7 364.85H417.05C418.55 364.85 419.85 364.25 420.95 363.05C422.05 361.85 422.9 360.1 423.5 357.8C424.1 355.5 424.4 352.8 424.4 349.7C424.4 346 424.05 343.2 423.35 341.3C422.75 339.4 421.9 338.1 420.8 337.4C419.8 336.7 418.65 336.35 417.35 336.35H412.7V364.85ZM478.114 429.5C473.314 429.5 469.164 428.7 465.664 427.1C462.264 425.5 459.464 422.7 457.264 418.7C455.164 414.7 453.614 409.15 452.614 402.05C451.614 394.95 451.114 385.9 451.114 374.9C451.114 361.4 452.164 350.8 454.264 343.1C456.364 335.3 459.514 329.75 463.714 326.45C468.014 323.15 473.364 321.5 479.764 321.5C484.664 321.5 488.814 322.35 492.214 324.05C495.614 325.75 498.364 328.6 500.464 332.6C502.564 336.5 504.064 341.85 504.964 348.65C505.964 355.45 506.464 364 506.464 374.3C506.464 388.3 505.464 399.3 503.464 407.3C501.464 415.3 498.364 421 494.164 424.4C490.064 427.8 484.714 429.5 478.114 429.5ZM479.014 413.6C481.814 413.6 483.964 412.35 485.464 409.85C487.064 407.25 488.164 403.1 488.764 397.4C489.464 391.6 489.814 384.1 489.814 374.9C489.814 365.7 489.564 358.35 489.064 352.85C488.564 347.35 487.564 343.4 486.064 341C484.664 338.6 482.514 337.4 479.614 337.4C476.814 337.4 474.614 338.7 473.014 341.3C471.414 343.9 470.264 348.2 469.564 354.2C468.864 360.2 468.514 368.25 468.514 378.35C468.514 386.65 468.764 393.4 469.264 398.6C469.864 403.8 470.914 407.6 472.414 410C473.914 412.4 476.114 413.6 479.014 413.6ZM540.37 429.5C535.57 429.5 531.42 428.7 527.92 427.1C524.52 425.5 521.72 422.7 519.52 418.7C517.42 414.7 515.87 409.15 514.87 402.05C513.87 394.95 513.37 385.9 513.37 374.9C513.37 361.4 514.42 350.8 516.52 343.1C518.62 335.3 521.77 329.75 525.97 326.45C530.27 323.15 535.62 321.5 542.02 321.5C546.92 321.5 551.07 322.35 554.47 324.05C557.87 325.75 560.62 328.6 562.72 332.6C564.82 336.5 566.32 341.85 567.22 348.65C568.22 355.45 568.72 364 568.72 374.3C568.72 388.3 567.72 399.3 565.72 407.3C563.72 415.3 560.62 421 556.42 424.4C552.32 427.8 546.97 429.5 540.37 429.5ZM541.27 413.6C544.07 413.6 546.22 412.35 547.72 409.85C549.32 407.25 550.42 403.1 551.02 397.4C551.72 391.6 552.07 384.1 552.07 374.9C552.07 365.7 551.82 358.35 551.32 352.85C550.82 347.35 549.82 343.4 548.32 341C546.92 338.6 544.77 337.4 541.87 337.4C539.07 337.4 536.87 338.7 535.27 341.3C533.67 343.9 532.52 348.2 531.82 354.2C531.12 360.2 530.77 368.25 530.77 378.35C530.77 386.65 531.02 393.4 531.52 398.6C532.12 403.8 533.17 407.6 534.67 410C536.17 412.4 538.37 413.6 541.27 413.6ZM587.009 428V324.65C587.009 324.65 587.109 324.65 587.309 324.65C587.609 324.55 588.459 324.5 589.859 324.5H599.459C600.859 324.5 601.659 324.55 601.859 324.65C602.159 324.65 602.309 324.65 602.309 324.65V425.15C602.309 426.15 602.059 426.85 601.559 427.25C601.159 427.55 599.859 427.75 597.659 427.85C595.559 427.95 592.009 428 587.009 428ZM567.959 337.4V325.85C567.959 323.95 568.909 323 570.809 323H621.809V334.55C621.809 335.65 621.609 336.4 621.209 336.8C620.809 337.2 620.059 337.4 618.959 337.4H567.959ZM645.799 429.5C639.099 429.5 634.149 428.5 630.949 426.5C627.749 424.5 626.149 422.25 626.149 419.75C626.149 418.25 626.399 416.5 626.899 414.5C627.499 412.4 628.399 410.5 629.599 408.8C631.199 410.2 633.249 411.4 635.749 412.4C638.349 413.3 641.149 413.75 644.149 413.75C648.649 413.75 651.799 412.6 653.599 410.3C655.399 408 656.299 404.9 656.299 401C656.299 398.2 655.749 395.55 654.649 393.05C653.649 390.55 651.749 387.5 648.949 383.9L634.849 365.9C631.449 361.4 629.149 357.5 627.949 354.2C626.749 350.8 626.149 347.4 626.149 344C626.149 337.3 628.349 331.9 632.749 327.8C637.249 323.6 643.849 321.5 652.549 321.5C659.949 321.5 665.149 322.25 668.149 323.75C671.149 325.25 672.649 327.2 672.649 329.6C672.649 330.9 672.349 332.3 671.749 333.8C671.249 335.3 670.349 336.8 669.049 338.3C668.149 337.6 666.399 336.9 663.799 336.2C661.299 335.4 658.499 335 655.399 335C651.499 335 648.399 335.75 646.099 337.25C643.799 338.65 642.649 340.75 642.649 343.55C642.649 346.05 643.149 348.3 644.149 350.3C645.149 352.3 646.649 354.65 648.649 357.35L663.649 375.8C667.349 380.4 669.799 384.6 670.999 388.4C672.299 392.1 672.949 396.15 672.949 400.55C672.949 405.55 672.149 410.25 670.549 414.65C668.949 419.05 666.199 422.65 662.299 425.45C658.399 428.15 652.899 429.5 645.799 429.5Z"/>
</g>
<g style='fill: none; stroke: #ffffff; stroke-width: 3px'>
<path d="M251.213 182.686L224.142 209.558" stroke-width="16.8288" stroke-linecap="round" stroke-linejoin="round"/>
<path d="M251.213 209.559L224.142 182.686" stroke-width="16.8288" stroke-linecap="round" stroke-linejoin="round"/>
<path d="M158.827 182.686L131.764 209.558" stroke-width="16.8288" stroke-linecap="round" stroke-linejoin="round"/>
<path d="M158.827 209.559L131.764 182.686" stroke-width="16.8288" stroke-linecap="round" stroke-linejoin="round"/>
<path d="M257.689 253.655C250.423 241.267 238.076 241.267 230.776 253.655C223.52 266.052 211.163 266.052 203.906 253.655C196.64 241.267 184.292 241.267 176.993 253.655C169.736 266.052 157.38 266.052 150.081 253.655C142.815 241.267 130.467 241.267 123.168 253.655" stroke-width="16.8288" stroke-linecap="round" stroke-linejoin="round" />
<path d="M84.658 157.716H83.3785C64.2874 157.716 48.8219 173.936 48.8219 193.947C48.8219 213.959 64.2874 230.188 83.3785 230.188H84.658V157.716Z" stroke-width="16.8288" stroke-linecap="round" stroke-linejoin="round"/>  
<path d="M84.6579 206.612C84.6579 206.612 79.8971 193.606 70.1083 191.734" stroke-width="16.8288" stroke-linecap="round" stroke-linejoin="round" />
<path d="M298.865 157.716H300.151C319.233 157.716 334.707 173.936 334.707 193.947C334.707 213.959 319.233 230.188 300.151 230.188H298.865V157.716Z" stroke-width="16.8288" stroke-linecap="round" stroke-linejoin="round" />
<path d="M298.865 206.612C298.865 206.612 303.626 193.606 313.424 191.734"  stroke-width="16.8288" stroke-linecap="round" stroke-linejoin="round"/>
<path d="M84.658 133.38V223.809C84.658 252.006 95.9428 279.049 116.028 298.986C136.113 318.924 163.356 330.125 191.762 330.125C220.167 330.125 247.41 318.924 267.495 298.986C287.58 279.049 298.865 252.006 298.865 223.809V133.38C298.865 133.38 262.23 144.967 228.925 144.967C152.074 144.967 110.737 88.2643 110.737 88.2643C110.737 88.2673 86.9363 104.448 84.6563 133.381L84.658 133.38Z"  stroke-width="16.8288" stroke-linecap="round" stroke-linejoin="round"/>
<path d="M241.895 322.963C241.889 321.335 241.765 319.71 241.525 318.103C226.249 326.022 209.269 330.145 192.037 330.124C173.913 330.148 156.08 325.586 140.225 316.868C139.849 318.877 139.66 320.917 139.66 322.962C139.66 345.729 162.545 364.179 190.776 364.179C219.01 364.176 241.895 345.726 241.895 322.963Z" stroke-width="16.8288" stroke-linecap="round" stroke-linejoin="round"/>
<path d="M272.92 293.151C252.603 316.648 222.954 330.155 191.762 330.125C160.143 330.154 130.136 316.284 109.804 292.247C32.8092 331.46 9 419 9 419H372C372 419 348.551 332.795 272.92 293.149V293.151Z"  stroke-width="16.8288" stroke-linecap="round" stroke-linejoin="round"/>
<path d="M62.7074 162.149L66.6602 162.208C71.7273 159.245 77.5001 157.682 83.3788 157.682H84.6583V133.38C86.9381 104.443 110.73 88.2985 110.73 88.2985C110.73 88.2985 152.066 145.001 228.918 145.001C262.222 145.001 298.858 133.415 298.858 133.415V157.75H300.144H300.147C307.98 157.765 315.558 160.526 321.541 165.547C321.541 165.547 336.529 136.185 317.823 85.6774C291.844 15.417 216.959 9.93386 192.183 9.06647C130.789 6.93764 107.03 56.6519 107.03 56.6519C107.03 56.6519 71.7165 48.2026 57.7708 97.7733C45.3086 142.079 62.7087 162.148 62.7087 162.148L62.7074 162.149Z" stroke-width="16.8288" stroke-linecap="round" stroke-linejoin="round"/>
</g>
</svg>

